<svg id="Layer_1" data-name="Layer 1" xmlns="http://www.w3.org/2000/svg" xmlns:xlink="http://www.w3.org/1999/xlink" viewBox="0 0 1280 1024"><defs><style>.cls-1{fill:none;}.cls-2{opacity:0.2;}.cls-3{fill:#723891;}.cls-4{fill:#562e70;}.cls-5{fill:#fff373;}.cls-6{clip-path:url(#clip-path);}.cls-7{fill:#4cd984;}.cls-8{fill:#fff;}.cls-9{clip-path:url(#clip-path-2);}.cls-10{fill:#ff5484;}.cls-11{opacity:0.15;}.cls-12{fill:#c470ff;}.cls-13{clip-path:url(#clip-path-3);}.cls-14{fill:#ffb8bc;}.cls-15{fill:#ff808c;}.cls-16{clip-path:url(#clip-path-4);}.cls-17{clip-path:url(#clip-path-5);}.cls-18{fill:#a65e5e;}.cls-19{fill:#734141;}.cls-20{opacity:0.5;}.cls-21{fill:#b54dff;}.cls-22{clip-path:url(#clip-path-8);}.cls-23{fill:#ded364;}.cls-24{opacity:0.4;}</style><clipPath id="clip-path"><rect class="cls-1" x="796.13" y="454.69" width="211.85" height="133.52" rx="1.62" transform="translate(380.6 1423.5) rotate(-90)"/></clipPath><clipPath id="clip-path-2"><rect class="cls-1" x="390.44" y="552.61" width="98.99" height="58.6" rx="1.2" transform="translate(-141.98 1021.84) rotate(-90)"/></clipPath><clipPath id="clip-path-3"><rect class="cls-1" x="560.96" y="388.7" width="187.36" height="294.23" rx="1.44" transform="translate(118.83 1190.46) rotate(-90)"/></clipPath><clipPath id="clip-path-4"><rect class="cls-1" x="355.43" y="371.35" width="134.09" height="105.06" rx="1.62" transform="translate(-1.41 846.36) rotate(-90)"/></clipPath><clipPath id="clip-path-5"><rect class="cls-1" x="630.36" y="278.55" width="134.08" height="105.07" rx="1.62" transform="translate(366.32 1028.48) rotate(-90)"/></clipPath><clipPath id="clip-path-8"><rect class="cls-1" x="493.6" y="324.43" width="98.99" height="58.6" rx="1.2" transform="translate(189.36 896.83) rotate(-90)"/></clipPath></defs><title>sitepic</title><g class="cls-2"><path class="cls-3" d="M1006.51,678.28H344.43V525.8c0-154.62,120.11-274.5,271-289,78.08-7.52,163.77-6,234.68,31a290.53,290.53,0,0,1,156.44,258Z"/></g><g class="cls-2"><path class="cls-3" d="M1014.63,796.12a20.88,20.88,0,0,0-20.88-20.88H961.62a10.46,10.46,0,0,1-10.44-10.77,10.73,10.73,0,0,1,10.88-10.12h82.62a20.91,20.91,0,0,0,20.91-20.91h0a20.91,20.91,0,0,0-20.9-20.91l-813.5-.41c-11.72,0-21.58,9.58-21.36,21.29a20.89,20.89,0,0,0,20.89,20.49H439.24A10.73,10.73,0,0,1,450.12,764a10.44,10.44,0,0,1-10.44,10.77H406.2c-11.5,0-21.37,9-21.58,20.5a20.89,20.89,0,0,0,20.88,21.28l588.24.43a20.88,20.88,0,0,0,20.89-20.88Z"/></g><path class="cls-4" d="M324.77,662.71l714.59-.55c14.38,0,26.5,11.77,26.22,26.15a25.65,25.65,0,0,1-25.65,25.16H768.71a13.1,13.1,0,0,0-13.25,12.58,12.83,12.83,0,0,0,12.82,13.07h24.4c14.39,0,26.51,11.77,26.23,26.15a25.65,25.65,0,0,1-25.65,25.16L374.91,791a25.66,25.66,0,0,1-25.65-25.16c-.27-14.38,11.84-26.15,26.23-26.15h131.8a12.83,12.83,0,0,0,12.83-13.06A13.11,13.11,0,0,0,506.87,714H324.2a25.65,25.65,0,0,1-25.65-25.16C298.28,674.48,310.39,662.71,324.77,662.71Z"/><path class="cls-4" d="M869.61,790.49H931a25.93,25.93,0,0,0,25.93-25.93h0A25.93,25.93,0,0,0,931,738.63H869.61a25.93,25.93,0,0,0-25.93,25.93h0A25.93,25.93,0,0,0,869.61,790.49Z"/><rect class="cls-4" x="787.66" y="451.19" width="242.52" height="148.93" rx="4.78" transform="translate(383.26 1434.58) rotate(-90)"/><rect class="cls-3" x="780.74" y="451.19" width="242.52" height="148.93" rx="4.78" transform="translate(376.34 1427.66) rotate(-90)"/><path class="cls-3" d="M966,649.47H838a13,13,0,0,1-13-13V414.85a13,13,0,0,1,13-13H966a13,13,0,0,1,13,13V636.47A13,13,0,0,1,966,649.47ZM838,407a7.91,7.91,0,0,0-7.91,7.9V636.47a7.91,7.91,0,0,0,7.91,7.9H966a7.91,7.91,0,0,0,7.9-7.9V414.85A7.91,7.91,0,0,0,966,407Z"/><path class="cls-4" d="M914.36,640.68H889.73a4.26,4.26,0,0,1-4.26-4.26h0a4.26,4.26,0,0,1,4.26-4.26h24.63a4.26,4.26,0,0,1,4.26,4.26h0A4.26,4.26,0,0,1,914.36,640.68Z"/><path class="cls-4" d="M909.91,411.76H894.1a1.53,1.53,0,0,1-1.53-1.52h0a1.53,1.53,0,0,1,1.53-1.52h15.81a1.52,1.52,0,0,1,1.52,1.52h0A1.52,1.52,0,0,1,909.91,411.76Z"/><rect class="cls-5" x="796.13" y="454.69" width="211.85" height="133.52" rx="1.62" transform="translate(380.6 1423.5) rotate(-90)"/><path class="cls-3" d="M947,422.23a2.43,2.43,0,1,1-2.42-2.43A2.42,2.42,0,0,1,947,422.23Z"/><path class="cls-3" d="M954.86,422.23a2.43,2.43,0,1,1-2.43-2.43A2.43,2.43,0,0,1,954.86,422.23Z"/><path class="cls-3" d="M962.67,422.23a2.43,2.43,0,1,1-2.43-2.43A2.43,2.43,0,0,1,962.67,422.23Z"/><g class="cls-6"><path class="cls-7" d="M409.15,675.65c.14-3.22.34-6.46.66-9.69,3.59-36.66,21.32-75.28,55.35-89.38,36.67-15.2,78.36,2.63,111.87,23.9,20.52,13,44.18,28.14,67.29,20.61,24-7.81,33.85-35.44,42.81-59,13.83-36.37,35.75-73.39,72.1-87.27,33.1-12.64,72-2.41,99.51,19.95s44.77,55.17,55.18,89c8.67,28.22,14,68.53,14,91.84C927.9,677.81,409.15,675.65,409.15,675.65Z"/></g><rect class="cls-4" x="346.97" y="367.85" width="164.75" height="120.48" rx="4.78" transform="translate(1.25 857.43) rotate(-90)"/><rect class="cls-3" x="340.05" y="367.85" width="164.75" height="120.48" rx="4.78" transform="translate(-5.66 850.52) rotate(-90)"/><path class="cls-3" d="M472.21,513H372.64a13,13,0,0,1-13-13V356.17a13,13,0,0,1,13-13h99.57a13,13,0,0,1,13,13V500A13,13,0,0,1,472.21,513ZM372.64,348.26a7.91,7.91,0,0,0-7.9,7.91V500a7.91,7.91,0,0,0,7.9,7.91h99.57a7.92,7.92,0,0,0,7.91-7.91V356.17a7.92,7.92,0,0,0-7.91-7.91Z"/><path class="cls-4" d="M430,504.22H414.85A4.25,4.25,0,0,1,410.6,500h0a4.25,4.25,0,0,1,4.25-4.25H430a4.25,4.25,0,0,1,4.26,4.25h0A4.26,4.26,0,0,1,430,504.22Z"/><path class="cls-4" d="M425.59,353.07h-6.33a1.52,1.52,0,0,1-1.52-1.52h0a1.52,1.52,0,0,1,1.52-1.52h6.33a1.52,1.52,0,0,1,1.52,1.52h0A1.52,1.52,0,0,1,425.59,353.07Z"/><rect class="cls-5" x="355.43" y="371.35" width="134.09" height="105.06" rx="1.62" transform="translate(-1.41 846.36) rotate(-90)"/><g class="cls-2"><path class="cls-3" d="M461.06,363.54a2.43,2.43,0,1,1-2.43-2.42A2.43,2.43,0,0,1,461.06,363.54Z"/></g><g class="cls-2"><path class="cls-3" d="M468.87,363.54a2.43,2.43,0,1,1-2.43-2.42A2.43,2.43,0,0,1,468.87,363.54Z"/></g><rect class="cls-4" x="621.9" y="275.04" width="164.75" height="120.48" rx="4.78" transform="translate(368.99 1039.55) rotate(-90)"/><rect class="cls-3" x="614.98" y="275.04" width="164.75" height="120.48" rx="4.78" transform="translate(362.07 1032.64) rotate(-90)"/><path class="cls-3" d="M747.14,420.21H647.57a13,13,0,0,1-13-13V263.36a13,13,0,0,1,13-13h99.57a13,13,0,0,1,13,13V407.2A13,13,0,0,1,747.14,420.21ZM647.57,255.46a7.91,7.91,0,0,0-7.91,7.9V407.2a7.91,7.91,0,0,0,7.91,7.91h99.57a7.91,7.91,0,0,0,7.91-7.91V263.36a7.91,7.91,0,0,0-7.91-7.9Z"/><path class="cls-4" d="M704.93,411.42H689.78a4.26,4.26,0,0,1-4.26-4.26h0a4.26,4.26,0,0,1,4.26-4.26h15.15a4.25,4.25,0,0,1,4.25,4.26h0A4.25,4.25,0,0,1,704.93,411.42Z"/><path class="cls-4" d="M700.56,260.27h-6.32a1.52,1.52,0,0,1-1.52-1.52h0a1.52,1.52,0,0,1,1.52-1.52h6.32a1.51,1.51,0,0,1,1.52,1.52h0A1.51,1.51,0,0,1,700.56,260.27Z"/><rect class="cls-8" x="630.36" y="278.55" width="134.08" height="105.07" rx="1.62" transform="translate(366.32 1028.48) rotate(-90)"/><path class="cls-3" d="M728.17,270.74a2.43,2.43,0,1,1-2.43-2.43A2.43,2.43,0,0,1,728.17,270.74Z"/><path class="cls-3" d="M736,270.74a2.43,2.43,0,1,1-2.42-2.43A2.42,2.42,0,0,1,736,270.74Z"/><path class="cls-3" d="M743.8,270.74a2.43,2.43,0,1,1-2.43-2.43A2.43,2.43,0,0,1,743.8,270.74Z"/><rect class="cls-4" x="384.18" y="550.02" width="121.63" height="69.98" rx="3.53" transform="translate(-140.01 1030.02) rotate(-90)"/><rect class="cls-3" x="379.08" y="550.02" width="121.63" height="69.98" rx="3.53" transform="translate(-145.12 1024.91) rotate(-90)"/><path class="cls-3" d="M467.17,648.38H412.62a10.28,10.28,0,0,1-10.26-10.27V531.91a10.27,10.27,0,0,1,10.26-10.26h54.55a10.28,10.28,0,0,1,10.27,10.26v106.2A10.29,10.29,0,0,1,467.17,648.38ZM412.62,526.74a5.18,5.18,0,0,0-5.17,5.17v106.2a5.18,5.18,0,0,0,5.17,5.17h54.55a5.18,5.18,0,0,0,5.17-5.17V531.91a5.18,5.18,0,0,0-5.17-5.17Z"/><path class="cls-4" d="M445.49,641.22H434.31a3.15,3.15,0,0,1-3.15-3.14h0a3.14,3.14,0,0,1,3.15-3.14h11.18a3.13,3.13,0,0,1,3.14,3.14h0A3.14,3.14,0,0,1,445.49,641.22Z"/><path class="cls-4" d="M442.27,529.63h-4.68a1.12,1.12,0,0,1-1.12-1.12h0a1.12,1.12,0,0,1,1.12-1.12h4.68a1.12,1.12,0,0,1,1.12,1.12h0A1.12,1.12,0,0,1,442.27,529.63Z"/><rect class="cls-8" x="390.44" y="552.61" width="98.99" height="58.6" rx="1.2" transform="translate(-141.98 1021.84) rotate(-90)"/><path class="cls-3" d="M466.23,537.36a1.79,1.79,0,1,1-1.79-1.79A1.79,1.79,0,0,1,466.23,537.36Z"/><g class="cls-9"><path class="cls-7" d="M399.56,675.65c.14-3.22.34-6.46.66-9.69,3.59-36.66,21.33-75.28,55.35-89.38,36.67-15.2,78.36,2.63,111.87,23.9,20.52,13,44.19,28.14,67.29,20.61,24-7.81,33.85-35.44,42.81-59,13.82-36.37,35.75-73.39,72.1-87.27,33.1-12.64,72-2.41,99.51,19.95s44.77,55.17,55.18,89c8.67,28.22,14,68.53,14,91.84C918.32,677.81,399.56,675.65,399.56,675.65Z"/></g><rect class="cls-4" x="487.35" y="321.85" width="121.64" height="69.98" rx="3.53" transform="translate(191.33 905.01) rotate(-90)"/><rect class="cls-3" x="482.25" y="321.85" width="121.64" height="69.98" rx="3.53" transform="translate(186.22 899.9) rotate(-90)"/><path class="cls-3" d="M570.34,420.21H515.79a10.29,10.29,0,0,1-10.27-10.27V303.74a10.29,10.29,0,0,1,10.27-10.27h54.55a10.28,10.28,0,0,1,10.26,10.27v106.2A10.28,10.28,0,0,1,570.34,420.21ZM515.79,298.57a5.18,5.18,0,0,0-5.17,5.17v106.2a5.18,5.18,0,0,0,5.17,5.17h54.55a5.18,5.18,0,0,0,5.17-5.17V303.74a5.18,5.18,0,0,0-5.17-5.17Z"/><path class="cls-4" d="M548.65,413.05H537.47a3.14,3.14,0,0,1-3.14-3.14h0a3.14,3.14,0,0,1,3.14-3.15h11.18a3.14,3.14,0,0,1,3.14,3.15h0A3.14,3.14,0,0,1,548.65,413.05Z"/><path class="cls-4" d="M545.43,301.46h-4.67a1.12,1.12,0,0,1-1.12-1.12h0a1.13,1.13,0,0,1,1.12-1.13h4.67a1.13,1.13,0,0,1,1.12,1.13h0A1.12,1.12,0,0,1,545.43,301.46Z"/><rect class="cls-10" x="493.6" y="324.43" width="98.99" height="58.6" rx="1.2" transform="translate(189.36 896.83) rotate(-90)"/><path class="cls-3" d="M569.4,309.19a1.8,1.8,0,1,1-1.8-1.79A1.8,1.8,0,0,1,569.4,309.19Z"/><g class="cls-11"><path d="M730.43,706.2H575.15a10.69,10.69,0,0,1-10.69-10.68h0a10.7,10.7,0,0,1,10.69-10.69H730.43a10.69,10.69,0,0,1,10.68,10.69h0A10.68,10.68,0,0,1,730.43,706.2Z"/></g><rect class="cls-12" x="614.51" y="617.94" width="78.71" height="66.89"/><polygon class="cls-3" points="700.81 681.22 700.81 641.26 689.35 641.26 689.35 681.22 669.83 681.22 588.66 681.22 588.66 692.71 669.83 692.71 718.75 692.71 718.75 681.22 700.81 681.22"/><rect class="cls-4" x="614.51" y="636.49" width="86.3" height="24.89"/><rect class="cls-4" x="553.48" y="385.61" width="214.49" height="307.86" rx="4.23" transform="translate(121.18 1200.25) rotate(-90)"/><rect class="cls-3" x="547.36" y="385.61" width="214.49" height="307.86" rx="4.23" transform="translate(115.07 1194.14) rotate(-90)"/><path class="cls-3" d="M799.29,649.33H509.92a11.81,11.81,0,0,1-11.79-11.8v-196a11.8,11.8,0,0,1,11.79-11.79H799.29a11.8,11.8,0,0,1,11.79,11.79v196A11.81,11.81,0,0,1,799.29,649.33ZM509.92,434.84a6.71,6.71,0,0,0-6.7,6.7v196a6.71,6.71,0,0,0,6.7,6.7H799.29a6.7,6.7,0,0,0,6.69-6.7v-196a6.7,6.7,0,0,0-6.69-6.7Z"/><path class="cls-4" d="M664.76,641.26H643a3.76,3.76,0,0,1-3.76-3.77h0a3.76,3.76,0,0,1,3.76-3.76h21.79a3.76,3.76,0,0,1,3.77,3.76h0A3.77,3.77,0,0,1,664.76,641.26Z"/><path class="cls-4" d="M666.87,438.8h-14a1.35,1.35,0,0,1-1.35-1.34h0a1.36,1.36,0,0,1,1.35-1.35h14a1.35,1.35,0,0,1,1.35,1.35h0A1.34,1.34,0,0,1,666.87,438.8Z"/><rect class="cls-8" x="560.96" y="388.7" width="187.36" height="294.23" rx="1.44" transform="translate(118.83 1190.46) rotate(-90)"/><g class="cls-13"><path class="cls-7" d="M409.15,675.65c.14-3.22.34-6.46.66-9.69,3.59-36.66,21.32-75.28,55.35-89.38,36.67-15.2,78.36,2.63,111.87,23.9,20.52,13,44.18,28.14,67.29,20.61,24-7.81,33.85-35.44,42.81-59,13.83-36.37,35.75-73.39,72.1-87.27,33.1-12.64,72-2.41,99.51,19.95s44.77,55.17,55.18,89c8.67,28.22,14,68.53,14,91.84C927.9,677.81,409.15,675.65,409.15,675.65Z"/></g><path class="cls-4" d="M625.72,492.63c.18,2.32.94,4.51,1,6.73.37,10.5-3.36,16-12.7,19.14-4.73,1.61-11,2.11-13.38,7.31s.91,10.33-1.71,15.57-9.38,6.62-14.33,9c-1.5.73-3,1.39-3.77,3-1.53,3.26.2,7.07,3.32,8.85,5.31,3,10.66,1.22,15.92,5.22,7.57,5.76,11.61,18.55,21.49,21,13.14,3.32,20.3-11.44,27.43-19.47a62.39,62.39,0,0,1,23.11-16.91c7.75-3.47,17.58-4.64,19.1-14.93.83-5.63-3.84-9.5-4.83-14.76-1.19-6.35,2.93-11.31,2.86-17.41-.1-8.41-8.2-10.5-13.6-14.87-7-5.66-6.06-15.29-12.84-21.22-12.29-10.75-29.55-6.69-36.12,7.46C624.19,481.76,625.28,487,625.72,492.63Z"/><path class="cls-14" d="M723.65,595.84a43.88,43.88,0,0,1-12.22-1.69c-20.09-5.76-30.47-24.61-38.82-39.76-1.68-3-3.27-5.94-4.82-8.5a8.6,8.6,0,1,1,14.72-8.9c1.73,2.86,3.4,5.89,5.17,9.1,7.16,13,15.28,27.74,28.49,31.52,9.15,2.63,20.9,0,34.92-7.83a8.6,8.6,0,0,1,8.38,15C746.25,592.19,734.42,595.84,723.65,595.84Z"/><path class="cls-4" d="M677.28,529.86c4.42,4.31,10.91,14.56,14.37,19.77-3.2,3.76-7.84,6.54-11,10.3C679.64,552.73,678.26,537.07,677.28,529.86Z"/><path class="cls-3" d="M646,524.06a38.76,38.76,0,0,1,20.6.22,64.46,64.46,0,0,1,7.32,2.89c4.49,3,8.8,7.76,11.58,19.85,1.13,4.93,12.88,17.43.45,30l-1.69,29-59,.52-5.77-63.68c.05-4.85.37-7.14,3.67-9.72C628.94,528.56,639.77,525.91,646,524.06Z"/><path class="cls-14" d="M666.64,524.28c1.12,6.4-1.06,15-7.68,15.9-12.22,1.77-18.65-12.91-18.53-14.57,2.35-.67,4.62-1.25,6.62-1.84C653.08,522,660.19,522.62,666.64,524.28Z"/><path class="cls-14" d="M655.05,533h0a7.81,7.81,0,0,0,6.78-8.73l-2.24-17.8-15.52,1.95,2.24,17.8A7.82,7.82,0,0,0,655.05,533Z"/><path class="cls-15" d="M643.47,504.17l15.69-2,2.39,19.92c-7.06-.27-14.48-4.6-16.7-11.16a29.79,29.79,0,0,1-1.1-4.59Z"/><path class="cls-14" d="M654.16,519.66h0a15.51,15.51,0,0,1-17.26-13.53l-2.18-18.07a15.5,15.5,0,0,1,13.52-17.26h0a15.51,15.51,0,0,1,17.26,13.53l2.19,18.07A15.51,15.51,0,0,1,654.16,519.66Z"/><polygon class="cls-15" points="656.07 500.2 655.78 497.93 658.03 497.63 653.46 491.23 654.51 490.48 660.32 498.63 657.22 499.04 657.36 500.04 656.07 500.2"/><path class="cls-4" d="M643.42,580.06a205.18,205.18,0,0,0,41.77-2.76C673.67,586.42,656.15,587.39,643.42,580.06Z"/><path class="cls-14" d="M590.37,593.24c-12.77,0-28.23-7.21-49.65-22.9a8.6,8.6,0,0,1,10.16-13.88c20.58,15.06,34.7,21.32,43.09,19.14C603,573.25,609.58,559,617.88,541l1.7-3.68a8.6,8.6,0,1,1,15.61,7.22l-1.69,3.66c-10.2,22.15-18.25,39.66-35.21,44A31.25,31.25,0,0,1,590.37,593.24Z"/><path class="cls-3" d="M626.6,565.22c3.39-6.1,6.18-12,9.93-19.07,2.31-4.37,1.86-9.55-2.4-12.46s-11.64-2.85-14.72,2.57c-4.2,7.39-6.14,12.55-9.53,18.46C615.13,558.19,621.65,561.37,626.6,565.22Z"/><path class="cls-4" d="M647.15,466c-9.6,0-12.5.66-16.81,9.23s1.45,42.58,6.88,43.85a25.22,25.22,0,0,0,0-5.76c-.32-3.84-1.17-8.36,1.54-11.58,2.94-3.52,8.79-3.59,11.42-7.34,2.92-4.16.2-10.4,2.82-14.75,2.47-4.11,8-4.31,12.77-5.69C660.65,469.11,653,466,647.15,466Z"/><path class="cls-4" d="M692.28,629.5c-1.68-9.13-8-23.56-8-23.56s-59,.52-59,.52-3.38,7.54-6.78,23Z"/><g class="cls-16"><path class="cls-12" d="M456.45,512.64H394.51V447.93a31,31,0,0,1,31-31h0a31,31,0,0,1,31,31Z"/><path class="cls-14" d="M425.41,427.31h0a6.15,6.15,0,0,0,6.19-6.12l.07-14.11-12.3-.07-.07,14.11A6.15,6.15,0,0,0,425.41,427.31Z"/><path class="cls-15" d="M419.34,403.63l12.3.06-.08,15.77c-7.37-.64-10.78-5-11.84-10.4a22.75,22.75,0,0,1-.39-3.69Z"/><path class="cls-15" d="M439.21,393.35a3.61,3.61,0,0,1-1.52,4,2.07,2.07,0,0,1-2.14.14,2.66,2.66,0,0,1-.81-2.4c0-1.16-.18-3.86,1.34-4.17C437.42,390.65,438.87,392.22,439.21,393.35Z"/><path class="cls-14" d="M414.74,400.46a1.14,1.14,0,0,1-.47.37,4.08,4.08,0,0,1-3.91-.14,3.28,3.28,0,0,1-1.32-2.23,4.2,4.2,0,0,1,.9-3c2.08-2.76,4.77-1.69,4.87-1.44.66,1.71.3,2.82.19,4.65C415,399.38,415.07,400,414.74,400.46Z"/><path class="cls-14" d="M427.92,415.75h0a13,13,0,0,1-14.73-10.89l-3-20.22,25.62-3.84,3,20.23A13,13,0,0,1,427.92,415.75Z"/><polygon class="cls-15" points="428.56 401.34 428.32 399.55 430.09 399.31 426.48 394.29 427.3 393.69 431.9 400.09 429.46 400.42 429.57 401.2 428.56 401.34"/><path class="cls-10" d="M417,369.28c-3.53.27-7.3,2.73-7.38,6.27,0,1.39.49,2.87-.09,4.14-.95,2.07-4.09,2.11-5.41,4a4,4,0,0,0,0,4.18,11.77,11.77,0,0,0,2.93,3.25c2,1.69,4.44,3.5,6.89,2.68,3.72-1.24,3.49-7,6.65-9.35,4.13-3.05,10.59,1.81,14.92-.94,3.23-2,3.38-7.27,6.78-9,2.62-1.36,6.49-.22,8.24-2.6,2.47-3.35-2.18-6.24-5-6.38s-4.89.93-7.17,2.53C431.07,373.09,424.88,368.68,417,369.28Z"/></g><g class="cls-17"><path class="cls-4" d="M726.71,512.79H661.8l-.58-41.67,80.37,3.54-1.16,30.2C740.05,513.72,734.93,512.79,726.71,512.79Z"/><path class="cls-10" d="M670.09,350h54.63a20.12,20.12,0,0,1,20.12,20.12V492a0,0,0,0,1,0,0H650a0,0,0,0,1,0,0V370.17A20.13,20.13,0,0,1,670.09,350Z"/><g class="cls-2"><path class="cls-3" d="M697.7,367.47c8,0,14.49-6.85,14.49-15.29,0-.14,0-.27,0-.4A39.72,39.72,0,0,0,700.52,350h-6.24a39.66,39.66,0,0,0-11,1.58c0,.18,0,.36,0,.56C683.21,360.62,689.7,367.47,697.7,367.47Z"/></g><path class="cls-18" d="M696.7,362.21h0a9,9,0,0,1-8.44-9.51l1.23-20.58,17.94,1.07-1.22,20.58A9,9,0,0,1,696.7,362.21Z"/><path class="cls-19" d="M707.8,328.26l-17.95-1.08-1.37,23c10.81-.23,16.2-6.35,18.24-14a33.26,33.26,0,0,0,.93-5.35Z"/><path class="cls-19" d="M681.63,311.44a5.27,5.27,0,0,0,1.84,6,3,3,0,0,0,3.11.41c1.11-.65,1.36-2.13,1.4-3.42.07-1.7,4.68-4.85-1.56-6.21C684.47,307.78,682.23,309.83,681.63,311.44Z"/><path class="cls-18" d="M714.92,324.87a10.38,10.38,0,0,0,3.47,1.12,5.16,5.16,0,0,0,3.49-.81,4.74,4.74,0,0,0,1.78-4.55,6.58,6.58,0,0,0-2.71-4.22,10.87,10.87,0,0,0-4.76-1.82C714.75,317.51,715,321.61,714.92,324.87Z"/><path class="cls-18" d="M692.93,346.15h0a17.24,17.24,0,0,1-11.27-21.61l11.1-35.25L713,295.67a13.2,13.2,0,0,1,8.63,16.56l-7.13,22.65A17.22,17.22,0,0,1,692.93,346.15Z"/><polygon class="cls-19" points="694.57 324.04 693.12 323.75 693.35 322.61 689.83 321.9 697.13 313.02 698.27 313.95 692.53 320.94 695.09 321.45 694.57 324.04"/><g class="cls-20"><path class="cls-3" d="M722,310.77c-.85,3.52-4.64,15-4.64,15-2-.47-13.08-4.49-5-26.11.74-2,2.94,3.83,5,4.13a4.62,4.62,0,0,1,1.12.3C720.51,308.15,723.24,305.73,722,310.77Z"/></g><path class="cls-3" d="M685.06,296.13a23.49,23.49,0,0,0,15.72,14.14c6.44,1.93,13.24,2.09,19.88,2.79,2.45.25,5.64-.47,5.41-3.63-.2-2.58-2.38-4-3.43-6.25-1.5-3.18,0-5.5,1.29-8.45a5.87,5.87,0,0,0,.72-3.27,3.76,3.76,0,0,0-1.44-2.27c-2.19-1.73-5.32-1.42-8.05-.84-2.27.48-6,2-8,.19-1.52-1.33-1.1-3.72-1.2-5.73-.37-7.79-6.91-5-11.8-3.22A4.22,4.22,0,0,1,692,280c-1.46-.24-2.21-1.83-2.67-3.22-2.41-7.32-6.53-3.11-6.73,2.06A43.55,43.55,0,0,0,685.06,296.13Z"/></g><g class="cls-6"><path class="cls-12" d="M910.65,534.15H893.82a28.92,28.92,0,0,0-28.76,26h-.15l-4.34,13.67a18.11,18.11,0,0,0,4.34,18.2v77.3h74.65V563.05A28.9,28.9,0,0,0,910.65,534.15Z"/><path class="cls-18" d="M879.57,537.94a23.15,23.15,0,0,0,44.09-.39l.06-.25a28.53,28.53,0,0,0-3.73-1.57c-1.26-.36-2.51-.7-3.73-1a28.85,28.85,0,0,0-5.61-.56H893.82A28.66,28.66,0,0,0,879.57,537.94Z"/><path class="cls-4" d="M872.57,515.36c-1.2-3.56-4.68-5-7.94-6.28-2.38-.92-4.83-1.85-6.7-3.59s-3-4.48-2.12-6.88c6.4-18.05,21.18-6.85,12.62-26.16-3-6.79,3.62-10.84,6.9-11.36,4.06-.65,6.92,2.07,10.32,3.6a13,13,0,0,0,11.11-.14c5.39-2.72,8.24-8.61,13.48-11.59a10.57,10.57,0,0,1,7.92-1.32,9.86,9.86,0,0,1,5.8,4.94c3.16,5.84,1.13,13.07,7.74,17,5,2.94,11.3,1.85,16.17,5,3.12,2,5.56,6.42,5.23,10.2-.56,6.27-8.5,9.7-10.43,15.79-2.11,6.65-1.15,13.86-3.06,20.57a9.75,9.75,0,0,1-2.09,4,9.18,9.18,0,0,1-7.2,2.52c-7.67-.38-14.61-5-22.36-4.7-3.89.13-7.79,1.7-11.62,2.43-7.46,1.41-18.93,6-22-4.2a54.05,54.05,0,0,1-1.2-7.18A16,16,0,0,0,872.57,515.36Z"/><path class="cls-18" d="M900.93,546.24h0a8.74,8.74,0,0,1-8.4-9.06l.77-20,17.46.67-.77,20A8.72,8.72,0,0,1,900.93,546.24Z"/><path class="cls-19" d="M911,513l-17.46-.67-.86,22.37c7.84-1,15.61-6.51,17.44-14a32.54,32.54,0,0,0,.78-5.22Z"/><path class="cls-18" d="M900.45,530.13h0a17.31,17.31,0,0,1-16.6-18l1.46-36.44,34.59,1.39-1.47,36.44A17.3,17.3,0,0,1,900.45,530.13Z"/><polygon class="cls-19" points="897.93 509.63 896.49 509.57 896.54 508.45 893.05 508.3 898.73 498.66 899.96 499.39 895.5 506.97 898.04 507.07 897.93 509.63"/><path class="cls-21" d="M917.3,595.05a209.48,209.48,0,0,1-44.68-2.21C885.57,602.92,903.16,603.38,917.3,595.05Z"/><path class="cls-4" d="M899.11,488c4.68,2.54,5.26,9.24,9.25,12.78,4.17,3.7,11.24,2.56,15-1.54S928,489,926.8,483.56a25.17,25.17,0,0,0-37.14-16.43c-4.57,2.63-11.37,10.53-9.16,16.49C883.17,490.83,893.83,485.16,899.11,488Z"/></g><g class="cls-9"><path class="cls-4" d="M465,658.18H413.56V615.76c0-14.2,11.51-24.92,25.71-24.92h0c14.19,0,25.66,10.72,25.66,24.92Z"/><path class="cls-15" d="M452.05,567c-.22.39,1.08.84,1.33.91a2.75,2.75,0,0,0,3.27-2.81c0-1.77-1.66-2.41-3-3a.89.89,0,0,0-.48-.11c-.67.09-.63,1.85-.64,2.32A5.58,5.58,0,0,1,452.05,567Z"/><path class="cls-14" d="M439.41,599h0a6.39,6.39,0,0,0,6.33-6.41l-.09-14.6-12.73.07.09,14.6A6.37,6.37,0,0,0,439.41,599Z"/><path class="cls-15" d="M432.86,574.6l12.72-.07.09,16.31c-7.63-.57-11.2-5.1-12.36-10.62a23.16,23.16,0,0,1-.44-3.81Z"/><path class="cls-14" d="M441.92,587.3h0a12.69,12.69,0,0,1-12.69-12.69V558.73A12.69,12.69,0,0,1,441.92,546h0a12.69,12.69,0,0,1,12.69,12.69v15.88A12.69,12.69,0,0,1,441.92,587.3Z"/><polygon class="cls-15" points="445.3 572.35 445.26 570.49 447.1 570.44 443.97 564.87 444.88 564.35 448.87 571.45 446.33 571.51 446.35 572.33 445.3 572.35"/><path class="cls-4" d="M441.92,546a12.69,12.69,0,0,0-12.69,12.69v.19a5.76,5.76,0,0,0,2.48.87,6.83,6.83,0,0,0,6.64-3.65,7.44,7.44,0,0,0-.1-6.81,9.78,9.78,0,0,0,13.59,1.52A12.65,12.65,0,0,0,441.92,546Z"/><path class="cls-14" d="M431.71,569.55a11.86,11.86,0,0,1-4.78-.76,3.62,3.62,0,0,1,.61-7.06,12,12,0,0,1,4.85.09C431.82,564.11,432.28,567.26,431.71,569.55Z"/></g><g class="cls-22"><path class="cls-4" d="M563.12,395.56l-33.46,5.84c-3.55-20.31-6.75-38.21-4.83-58.68,1.7-18.11,14.19-21.26,24.76-20.21,0,0,13,7.33,12,17.88C560,358.88,560.09,378.17,563.12,395.56Z"/><path class="cls-5" d="M570.25,423.77H519V395.89a25.62,25.62,0,0,1,25.62-25.62h0a25.62,25.62,0,0,1,25.62,25.62Z"/><path class="cls-23" d="M544,384.05a10.19,10.19,0,0,0,10.1-11.93,25.49,25.49,0,0,0-9.51-1.85h0a25.55,25.55,0,0,0-10.78,2.4,10.55,10.55,0,0,0-.07,1.13A10.25,10.25,0,0,0,544,384.05Z"/><path class="cls-18" d="M544.38,378.58h0a6.36,6.36,0,0,0,6.2-6.52l-.37-14.59-12.72.32.37,14.59A6.36,6.36,0,0,0,544.38,378.58Z"/><path class="cls-19" d="M537.35,354.29l12.72-.32.42,16.3c-5.7-.79-11.31-4.88-12.57-10.38a23,23,0,0,1-.52-3.8Z"/><path class="cls-18" d="M544.63,366h0a13.38,13.38,0,0,1-13.37-13.37v-8.85a13.91,13.91,0,0,1,13.91-13.91h5a7.85,7.85,0,0,1,7.84,7.85V352.6A13.38,13.38,0,0,1,544.63,366Z"/><polygon class="cls-19" points="546.91 351.94 546.86 350.07 548.7 350.02 545.52 344.46 546.43 343.94 550.47 351.01 547.93 351.09 547.96 351.91 546.91 351.94"/><path class="cls-4" d="M564,340l-32.61,2.68c-.26,0,1.24-6.72,1.43-7.39.92-3.15,1.07-5.33,3.31-7.75a17,17,0,0,1,16.78-4.45C560.45,325.23,564,332.64,564,340Z"/><path class="cls-4" d="M537.83,371.19,529.5,368V338.76s6.82-1.23,7.19.53A99.47,99.47,0,0,1,537.83,371.19Z"/></g><path class="cls-12" d="M386.51,622.46a74.84,74.84,0,0,0-17.14,24,77,77,0,0,0-8.65-31.79,75.08,75.08,0,0,0-7.18,31.54,74.88,74.88,0,0,0-17-23.76,78.47,78.47,0,0,0,24.94,65.64c0-1.26,0-2.52,0-3.78l0,.08c0,1.23,0,2.46,0,3.7A78.53,78.53,0,0,0,386.51,622.46Z"/><path class="cls-12" d="M925.29,704.41a75,75,0,0,0-17.14,24,77.06,77.06,0,0,0-8.65-31.8,75.3,75.3,0,0,0-7.18,31.54,75,75,0,0,0-17-23.75,78.51,78.51,0,0,0,24.94,65.64c0-1.26,0-2.52,0-3.78l0,.08c0,1.23,0,2.47,0,3.7A78.54,78.54,0,0,0,925.29,704.41Z"/><path class="cls-12" d="M804.07,282.42a11.1,11.1,0,1,1-11.1-11.1A11.1,11.1,0,0,1,804.07,282.42Z"/><path class="cls-12" d="M384.39,565.14a11.1,11.1,0,1,1-11.1-11.1A11.1,11.1,0,0,1,384.39,565.14Z"/><path class="cls-12" d="M500.68,239.35a11.1,11.1,0,1,1-11.1-11.1A11.1,11.1,0,0,1,500.68,239.35Z"/><path class="cls-12" d="M331.59,467a4.09,4.09,0,1,1-4.09-4.09A4.09,4.09,0,0,1,331.59,467Z"/><path class="cls-12" d="M531.48,462.93a4.1,4.1,0,1,1-4.1-4.09A4.1,4.1,0,0,1,531.48,462.93Z"/><path class="cls-12" d="M479.1,317a4.1,4.1,0,1,1-4.09-4.1A4.09,4.09,0,0,1,479.1,317Z"/><path class="cls-12" d="M913,282.42a4.1,4.1,0,1,1-4.1-4.09A4.09,4.09,0,0,1,913,282.42Z"/><path class="cls-12" d="M863.51,444.22a4.09,4.09,0,1,1-4.09-4.09A4.09,4.09,0,0,1,863.51,444.22Z"/><path class="cls-12" d="M1032.21,469.76a5.55,5.55,0,1,1-5.55-5.55A5.54,5.54,0,0,1,1032.21,469.76Z"/><rect class="cls-3" x="534.37" y="495.07" width="58.13" height="5.07"/><rect class="cls-3" x="534.37" y="507.93" width="58.13" height="5.07"/><rect class="cls-3" x="534.37" y="520.79" width="58.13" height="5.07"/><g class="cls-24"><g class="cls-24"><path class="cls-8" d="M968.81,415.53h0L835.29,549v78.34h0L968.81,493.86Z"/></g><g class="cls-24"><path class="cls-8" d="M475,421.5V356.84H439.37c-27.11,27.11-42.31,42.32-69.43,69.43v64.65h35.64Z"/></g><g class="cls-24"><path class="cls-8" d="M644.87,398.12H658.8L749.93,307V264H736l-91.13,91.13Z"/></g><g class="cls-24"><path class="cls-8" d="M469.23,532.41h0L410.63,591V631.4h0l58.59-58.6Z"/></g><g class="cls-24"><path class="cls-8" d="M513.8,403.23h2.55l56-56V304.24h-2.56l-56,56Z"/></g><g class="cls-24"><path class="cls-8" d="M801.76,442.13H694.9L507.53,629.5H614.39L801.76,442.13Z"/></g></g><g class="cls-11"><path d="M591,778.91H471.92a16.33,16.33,0,0,1-16.33-16.33h0a16.34,16.34,0,0,1,16.33-16.34H591a16.34,16.34,0,0,1,16.33,16.34h0A16.33,16.33,0,0,1,591,778.91Z"/></g><path class="cls-3" d="M531.48,764.44h0a62,62,0,0,1-62-62V645.52a62,62,0,0,1,62-62h0a62,62,0,0,1,62,62v56.93A62,62,0,0,1,531.48,764.44Z"/><rect class="cls-4" x="528.1" y="647.96" width="6.75" height="116.48"/><rect class="cls-4" x="514.95" y="663.09" width="6.74" height="44.81" transform="translate(-303.73 434.91) rotate(-35.95)"/><rect class="cls-4" x="523.25" y="717.2" width="43.07" height="6.75" transform="translate(-358.38 738.19) rotate(-54.03)"/><g class="cls-11"><path d="M1037.06,696.62H970.47A14.47,14.47,0,0,1,956,682.15h0a14.48,14.48,0,0,1,14.48-14.48h66.59a14.47,14.47,0,0,1,14.47,14.48h0A14.47,14.47,0,0,1,1037.06,696.62Z"/></g><path class="cls-3" d="M1003.76,683.79h0a55,55,0,0,1-55-54.95V578.37a55,55,0,0,1,55-55h0a55,55,0,0,1,55,55v50.47A55,55,0,0,1,1003.76,683.79Z"/><rect class="cls-4" x="1000.77" y="580.53" width="5.98" height="103.26"/><rect class="cls-4" x="996.47" y="618.47" width="38.19" height="5.98" transform="translate(-83.64 1079) rotate(-54.06)"/><rect class="cls-12" x="697.35" y="407.16" width="145.92" height="91.03"/><rect class="cls-8" x="729.99" y="431.32" width="80.65" height="7.03"/><rect class="cls-8" x="729.99" y="449.16" width="80.65" height="7.04"/><rect class="cls-8" x="729.99" y="466.99" width="80.65" height="7.04"/><polygon class="cls-12" points="729.99 535.82 729.99 489.05 770.31 489.05 729.99 535.82"/><rect class="cls-7" x="303.98" y="307.37" width="105.17" height="65.61"/><rect class="cls-8" x="327.5" y="323.92" width="58.13" height="6.79"/><rect class="cls-8" x="327.5" y="336.78" width="58.13" height="6.79"/><rect class="cls-8" x="327.5" y="349.64" width="58.13" height="6.79"/><polygon class="cls-7" points="385.63 400.1 385.63 366.39 356.56 366.39 385.63 400.1"/><rect class="cls-12" x="576.4" y="206.54" width="105.17" height="65.61"/><rect class="cls-8" x="599.91" y="223.96" width="58.13" height="5.07"/><rect class="cls-8" x="599.91" y="236.81" width="58.13" height="5.07"/><rect class="cls-8" x="599.91" y="249.67" width="58.13" height="5.07"/><polygon class="cls-12" points="658.04 299.27 658.04 265.57 628.98 265.57 658.04 299.27"/><rect class="cls-8" x="780.1" y="316.97" width="127.05" height="79.26"/><rect class="cls-12" x="807.63" y="337.67" width="70.22" height="6.79"/><rect class="cls-12" x="808.52" y="353.2" width="70.22" height="6.79"/><rect class="cls-12" x="808.52" y="368.73" width="70.22" height="6.79"/><polygon class="cls-8" points="878.74 428.99 878.74 388.27 843.63 388.27 878.74 428.99"/></svg>